<?xml version="1.0" standalone="no"?>
<!DOCTYPE svg PUBLIC "-//W3C//DTD SVG 20010904//EN"
 "http://www.w3.org/TR/2001/REC-SVG-20010904/DTD/svg10.dtd">
<svg version="1.0" xmlns="http://www.w3.org/2000/svg"
 width="512.000000pt" height="512.000000pt" viewBox="0 0 512.000000 512.000000"
 preserveAspectRatio="xMidYMid meet">
<metadata>
Created by potrace 1.16, written by Peter Selinger 2001-2019
</metadata>
<g transform="translate(0.000000,512.000000) scale(0.100000,-0.100000)"
fill="#000000" stroke="none">
<path d="M452 4774 c-91 -45 -138 -130 -130 -233 5 -78 45 -144 109 -184 l49
-30 0 -581 0 -581 -48 -41 c-26 -22 -61 -65 -77 -95 l-30 -54 0 -655 0 -655
23 -43 c52 -98 147 -168 242 -179 l50 -6 0 939 c0 516 0 1166 0 1444 l0 506
52 34 c147 97 144 312 -6 404 -71 44 -160 48 -234 10z"/>
<path d="M4455 4776 c-171 -79 -195 -313 -43 -425 23 -17 48 -31 55 -31 11 0
13 -263 13 -1436 l0 -1437 50 6 c95 11 190 81 242 179 l23 43 0 655 0 655 -25
45 c-13 25 -48 69 -77 97 l-53 53 0 570 c0 472 2 570 13 570 8 0 32 13 55 30
91 66 126 194 82 298 -56 131 -207 188 -335 128z m212 -1722 c7 -7 17 -24 23
-39 18 -46 9 -135 -13 -135 -5 0 -16 -8 -24 -17 -8 -10 -11 -12 -7 -4 5 11 3
13 -9 8 -10 -3 -17 -2 -17 4 0 6 -5 7 -10 4 -16 -10 -32 46 -28 95 8 77 50
119 85 84z"/>
<path d="M1330 3505 c-139 -31 -299 -133 -386 -248 -192 -254 -192 -580 0
-834 61 -80 140 -144 241 -193 151 -74 99 -71 1410 -68 l1170 3 84 29 c208 73
369 236 437 442 26 79 29 102 28 209 0 102 -5 132 -27 200 -36 108 -89 195
-168 274 -79 79 -165 132 -274 169 l-80 27 -1185 2 c-987 1 -1196 -1 -1250
-12z m417 -341 c29 -17 48 -39 67 -76 26 -51 26 -55 26 -277 0 -127 -5 -243
-11 -264 -11 -42 -59 -101 -98 -122 -14 -7 -42 -15 -61 -16 l-35 -4 -2 135 c0
74 -4 146 -6 160 -30 149 -34 404 -8 473 10 26 14 27 48 21 21 -3 57 -17 80
-30z m1840 0 c29 -17 48 -39 67 -76 26 -51 26 -55 26 -277 0 -127 -5 -243 -11
-264 -11 -42 -59 -101 -98 -122 -14 -7 -42 -15 -61 -16 l-35 -4 -2 135 c0 74
-4 146 -6 160 -30 149 -34 404 -8 473 10 26 14 27 48 21 21 -3 57 -17 80 -30z"/>
<path d="M2053 1415 c-175 -88 -175 -337 0 -432 29 -16 73 -18 507 -18 434 0
478 2 507 18 175 95 175 344 0 432 l-51 25 -456 0 -456 0 -51 -25z"/>
</g>
</svg>
