<?xml version="1.0" standalone="no"?>
<!DOCTYPE svg PUBLIC "-//W3C//DTD SVG 20010904//EN"
 "http://www.w3.org/TR/2001/REC-SVG-20010904/DTD/svg10.dtd">
<svg version="1.0" xmlns="http://www.w3.org/2000/svg"
 width="512.000000pt" height="512.000000pt" viewBox="0 0 512.000000 512.000000"
 preserveAspectRatio="xMidYMid meet">

<g transform="translate(0.000000,512.000000) scale(0.100000,-0.100000)"
fill="#000000" stroke="none">
<path d="M505 4791 c-70 -18 -126 -64 -161 -131 -26 -50 -24 -153 4 -206 22
-44 78 -98 111 -109 21 -6 21 -9 21 -597 l0 -590 -49 -44 c-29 -26 -62 -69
-78 -102 l-28 -57 0 -630 c0 -719 -4 -685 87 -781 51 -54 113 -87 186 -99 l42
-7 0 1450 0 1451 21 6 c33 11 89 65 111 109 28 53 30 156 4 206 -52 101 -169
158 -271 131z m159 -127 c9 -8 16 -19 16 -24 0 -11 -29 -40 -40 -40 -11 0 -40
29 -40 40 0 11 29 40 40 40 5 0 16 -7 24 -16z"/>
<path d="M4505 4791 c-112 -29 -187 -125 -187 -241 0 -92 46 -171 123 -211
l39 -19 0 -1436 0 -1436 43 7 c72 12 134 45 185 99 91 96 87 62 87 781 l0 630
-28 56 c-15 31 -50 77 -77 103 l-50 47 0 574 0 575 39 19 c77 40 123 119 123
211 0 95 -50 177 -133 220 -42 22 -121 32 -164 21z m170 -140 c9 -28 -5 -51
-31 -51 -29 0 -46 28 -33 52 13 24 56 23 64 -1z m-8 -1597 c7 -7 17 -24 23
-39 18 -46 9 -135 -13 -135 -5 0 -16 -8 -24 -17 -8 -10 -11 -12 -7 -4 5 11 3
13 -9 8 -10 -3 -17 -2 -17 4 0 6 -5 7 -10 4 -16 -10 -32 46 -28 95 8 77 50
119 85 84z"/>
<path d="M1860 4210 c42 -33 116 -50 223 -50 107 0 120 4 47 14 -25 3 -56 7
-70 10 -14 3 -41 7 -60 10 -58 9 -93 16 -130 26 l-35 9 25 -19z"/>
<path d="M1330 3505 c-139 -31 -299 -133 -386 -248 -192 -254 -192 -580 0
-834 61 -80 140 -144 241 -193 151 -74 99 -71 1410 -68 l1170 3 84 29 c208 73
369 236 437 442 26 79 29 102 28 209 0 102 -5 132 -27 200 -36 108 -89 195
-168 274 -79 79 -165 132 -274 169 l-80 27 -1185 2 c-987 1 -1196 -1 -1250
-12z m417 -341 c29 -17 48 -39 67 -76 26 -51 26 -55 26 -277 0 -127 -5 -243
-11 -264 -11 -42 -59 -101 -98 -122 -14 -7 -42 -15 -61 -16 l-35 -4 -2 135 c0
74 -4 146 -6 160 -30 149 -34 404 -8 473 10 26 14 27 48 21 21 -3 57 -17 80
-30z m1840 0 c29 -17 48 -39 67 -76 26 -51 26 -55 26 -277 0 -127 -5 -243 -11
-264 -11 -42 -59 -101 -98 -122 -14 -7 -42 -15 -61 -16 l-35 -4 -2 135 c0 74
-4 146 -6 160 -30 149 -34 404 -8 473 10 26 14 27 48 21 21 -3 57 -17 80 -30z"/>
<path d="M2053 1415 c-175 -88 -175 -337 0 -432 29 -16 73 -18 507 -18 434 0
478 2 507 18 175 95 175 344 0 432 l-51 25 -456 0 -456 0 -51 -25z"/>
</g>
</svg>
